<?xml version="1.0" encoding="utf-8"?>
<!-- Generator: Adobe Illustrator 22.1.0, SVG Export Plug-In . SVG Version: 6.00 Build 0)  -->
<svg version="1.1" id="Layer_1" xmlns="http://www.w3.org/2000/svg" xmlns:xlink="http://www.w3.org/1999/xlink" x="0px" y="0px"
	 viewBox="0 0 24 24" style="enable-background:new 0 0 24 24;" xml:space="preserve">
<style type="text/css">
	.st0{fill:#FFFFFF;}
</style>
<path class="st0" d="M19.6,4.4c-0.5-0.5-1.2-0.5-1.7,0L12,10.3L6.1,4.4c-0.5-0.5-1.2-0.5-1.7,0c-0.5,0.5-0.5,1.2,0,1.7l5.9,5.9
	l-5.9,5.9c-0.5,0.5-0.5,1.2,0,1.7c0.5,0.5,1.2,0.5,1.7,0l5.9-5.9l5.9,5.9c0.5,0.5,1.2,0.5,1.7,0s0.5-1.2,0-1.7L13.7,12l5.9-5.9
	C20.1,5.6,20.1,4.8,19.6,4.4z"/>
</svg>
