<svg xmlns="http://www.w3.org/2000/svg" viewBox="0 0 406.1 88.4"><defs><style>.cls-1{fill:#fff;}</style></defs><title>Asset 3</title><g id="Layer_2" data-name="Layer 2"><g id="Layer_1-2" data-name="Layer 1"><circle class="cls-1" cx="4.91" cy="44.2" r="4.91"/><path class="cls-1" d="M24.56,19.64a4.93,4.93,0,0,0-4.92,4.92V63.85a4.92,4.92,0,0,0,9.83,0V24.56A4.93,4.93,0,0,0,24.56,19.64Z"/><path class="cls-1" d="M44.2,0a4.93,4.93,0,0,0-4.91,4.91V83.49a4.91,4.91,0,1,0,9.82,0V4.91A4.93,4.93,0,0,0,44.2,0Z"/><path class="cls-1" d="M63.85,19.64a4.93,4.93,0,0,0-4.92,4.92V63.85a4.92,4.92,0,0,0,9.83,0V24.56A4.93,4.93,0,0,0,63.85,19.64Z"/><circle class="cls-1" cx="83.49" cy="44.2" r="4.91"/><path class="cls-1" d="M140.75,10.94a14.9,14.9,0,0,1,7.71,13.2,14.8,14.8,0,0,1-7.73,13.15,16.2,16.2,0,0,1-8,2H120.63V9h12.2A16,16,0,0,1,140.75,10.94Zm-1.54,24a12.48,12.48,0,0,0-.06-21.66,12.62,12.62,0,0,0-6.36-1.65h-9.16v25h9.29A12.39,12.39,0,0,0,139.21,35Z"/><path class="cls-1" d="M177,39.29l-3.6-8.08H156.53L153,39.29h-3.21L163.44,9h3.12l13.68,30.34ZM157.7,28.52h14.5l-7.29-16.41Z"/><path class="cls-1" d="M178.11,8.9h23v2.74h-10V39.29h-3V11.64h-10Z"/><path class="cls-1" d="M226.25,39.29l-3.6-8.08H205.8l-3.55,8.08H199L212.71,9h3.12l13.68,30.34ZM207,28.52h14.5l-7.3-16.41Z"/><path class="cls-1" d="M282.73,8.9h3.17L275.61,39.29h-3.13l-8.55-26.61-8.64,26.61h-3.08L242,8.9h3.25l8.64,27.22,8.6-27.22h3l8.63,27.22Z"/><path class="cls-1" d="M311.14,10.75a15.55,15.55,0,0,1,5.75,5.58A14.62,14.62,0,0,1,319,24.05a14.84,14.84,0,0,1-2.13,7.77,16,16,0,0,1-27.43,0,14.84,14.84,0,0,1-2.13-7.77,14.62,14.62,0,0,1,2.13-7.72,15.55,15.55,0,0,1,5.75-5.58,16.36,16.36,0,0,1,15.93,0Zm-14.35,2.32a12.75,12.75,0,0,0-4.68,4.6,12.21,12.21,0,0,0-1.74,6.38,12.44,12.44,0,0,0,1.74,6.43,12.75,12.75,0,0,0,4.68,4.66,12.52,12.52,0,0,0,6.43,1.72,12.32,12.32,0,0,0,6.36-1.72,12.88,12.88,0,0,0,4.67-4.66A12.53,12.53,0,0,0,316,24.05a12.3,12.3,0,0,0-1.73-6.38,12.87,12.87,0,0,0-4.67-4.6,12.49,12.49,0,0,0-6.36-1.69A12.69,12.69,0,0,0,296.79,13.07Z"/><path class="cls-1" d="M345.63,39.29l-6.55-9.9q-1.4.09-2.13.09h-8.34v9.81h-3V9H337q5.69,0,8.79,2.62a9.21,9.21,0,0,1,3.1,7.45A10.43,10.43,0,0,1,347,25.31a9.51,9.51,0,0,1-5.21,3.52l7.29,10.46ZM337,26.79q4.33,0,6.68-2A7,7,0,0,0,346,19.1a6.72,6.72,0,0,0-2.35-5.55c-1.56-1.28-3.79-1.91-6.68-1.91h-8.34V26.79Z"/><path class="cls-1" d="M381.36,39.29h-3.69L366.16,24.53,360,31.21v8.08h-3V8.9h3V27.4L376.84,8.9h3.65l-12.2,13.29Z"/><path class="cls-1" d="M399.89,12.09a15.19,15.19,0,0,0-4.16-.63,9.08,9.08,0,0,0-5,1.24,3.83,3.83,0,0,0-1.88,3.36,4.37,4.37,0,0,0,1,3A7.3,7.3,0,0,0,392.43,21a39.51,39.51,0,0,0,4.17,1.5,34.29,34.29,0,0,1,5,1.8,8.7,8.7,0,0,1,3.21,2.58,7.07,7.07,0,0,1,1.32,4.47,7.09,7.09,0,0,1-1.36,4.3,8.87,8.87,0,0,1-3.85,2.89,14.8,14.8,0,0,1-5.68,1A15.9,15.9,0,0,1,389,38.25a16.75,16.75,0,0,1-5.19-3.35l1.39-2.47A15.18,15.18,0,0,0,390,35.56a13.7,13.7,0,0,0,5.3,1.13,9.55,9.55,0,0,0,5.51-1.42,4.38,4.38,0,0,0,2-3.79,4.6,4.6,0,0,0-1-3.13,7,7,0,0,0-2.56-1.87c-1-.43-2.43-.94-4.25-1.52a40.83,40.83,0,0,1-4.95-1.8,8.23,8.23,0,0,1-3.17-2.52,6.86,6.86,0,0,1-1.3-4.36,6.55,6.55,0,0,1,1.3-4,8.35,8.35,0,0,1,3.64-2.67,14.71,14.71,0,0,1,5.43-.93,17.51,17.51,0,0,1,5,.74,17.27,17.27,0,0,1,4.41,1.95L404,13.89A15.84,15.84,0,0,0,399.89,12.09Z"/><path class="cls-1" d="M159.79,49.48H168L157.66,79.91H149.5l-5.78-20.7-5.86,20.7H129.7L119.46,49.48H128l6,22.23,6-22.23h7.77l6.08,22.23Z"/><path class="cls-1" d="M190.78,79.91l-2.08-5.38H175.54l-2.12,5.38h-8.17l13.07-30.43h8.16l12.77,30.43ZM177.93,68.45h8.42L182.19,57.6Z"/><path class="cls-1" d="M202,49.48h7.94V73.14h12.9v6.77H202Z"/><path class="cls-1" d="M226.42,49.48h24v6.34H234.37v5.69h14.49V67.8l-14.49,0v5.73h16.49v6.33H226.42Z"/><path class="cls-1" d="M271.5,56.3a15.22,15.22,0,0,0-4.62-.91,4.26,4.26,0,0,0-2.32.54,1.75,1.75,0,0,0-.85,1.58,2.19,2.19,0,0,0,.74,1.68,5.71,5.71,0,0,0,1.82,1.08c.72.28,1.8.63,3.21,1.06a41,41,0,0,1,5.23,1.83,9.1,9.1,0,0,1,3.54,2.8,7.74,7.74,0,0,1,1.48,4.93,8.41,8.41,0,0,1-1.61,5.18,9.76,9.76,0,0,1-4.4,3.24,17.22,17.22,0,0,1-6.23,1.08A22.55,22.55,0,0,1,260,79.07a20.51,20.51,0,0,1-6.5-3.63l3.09-6.2A19.15,19.15,0,0,0,262,72.58a14.76,14.76,0,0,0,5.57,1.3,5.2,5.2,0,0,0,2.8-.65,2.12,2.12,0,0,0,1-1.91,2.25,2.25,0,0,0-.76-1.74,5.45,5.45,0,0,0-1.91-1.1c-.76-.28-1.84-.6-3.23-1a40.86,40.86,0,0,1-5.17-1.76,9.11,9.11,0,0,1-3.49-2.69,7.41,7.41,0,0,1-1.45-4.8,8.37,8.37,0,0,1,1.49-5A9.54,9.54,0,0,1,261.13,50a16.43,16.43,0,0,1,6.4-1.15,23.28,23.28,0,0,1,6.51.93,21.31,21.31,0,0,1,5.65,2.5l-3,6.33A27.06,27.06,0,0,0,271.5,56.3Z"/></g></g></svg>