<?xml version="1.0" standalone="no"?>
<!DOCTYPE svg PUBLIC "-//W3C//DTD SVG 20010904//EN"
 "http://www.w3.org/TR/2001/REC-SVG-20010904/DTD/svg10.dtd">
<svg version="1.0" xmlns="http://www.w3.org/2000/svg"
 width="700.000000pt" height="700.000000pt" viewBox="0 0 700.000000 700.000000"
 preserveAspectRatio="xMidYMid meet">
<metadata>
Created by potrace 1.11, written by Peter Selinger 2001-2013
</metadata>
<g transform="translate(0.000000,700.000000) scale(0.100000,-0.100000)"
fill="#000000" stroke="none">
<path d="M3408 6985 c-143 -39 -260 -167 -288 -314 -7 -36 -10 -1101 -9 -3190
0 -3079 1 -3137 20 -3198 34 -107 119 -200 229 -251 74 -35 201 -37 273 -4
117 52 201 144 237 258 18 57 19 153 19 3210 1 2866 0 3155 -15 3205 -62 208
-272 336 -466 284z"/>
<path d="M1892 5438 c-142 -21 -268 -132 -317 -278 -18 -53 -19 -123 -20
-1640 -1 -1741 -4 -1646 58 -1752 52 -90 164 -169 267 -188 192 -36 403 109
443 307 9 45 12 432 11 1634 -1 866 -4 1587 -7 1602 -12 58 -65 153 -112 200
-91 91 -207 132 -323 115z"/>
<path d="M5025 5442 c-152 -15 -296 -137 -341 -288 -16 -55 -17 -163 -18
-1634 -1 -1221 1 -1588 11 -1632 32 -145 148 -265 295 -303 168 -45 359 56
441 233 l31 67 1 1585 c0 872 -3 1609 -8 1639 -24 159 -170 305 -328 328 -30
5 -67 7 -84 5z"/>
<path d="M266 3866 c-163 -55 -269 -209 -261 -380 5 -113 36 -184 112 -259
199 -200 546 -120 636 145 49 143 11 303 -95 404 -110 104 -252 137 -392 90z"/>
<path d="M6538 3880 c-97 -17 -197 -85 -252 -174 -43 -68 -60 -125 -60 -199 0
-189 117 -340 296 -382 236 -55 459 111 473 351 15 255 -202 447 -457 404z"/>
</g>
</svg>
