<?xml version="1.0" encoding="UTF-8" standalone="no"?>
<svg
   xmlns:dc="http://purl.org/dc/elements/1.1/"
   xmlns:cc="http://creativecommons.org/ns#"
   xmlns:rdf="http://www.w3.org/1999/02/22-rdf-syntax-ns#"
   xmlns:svg="http://www.w3.org/2000/svg"
   xmlns="http://www.w3.org/2000/svg"
   height="88.400002"
   width="88.399994"
   id="svg3811"
   version="1.1"
   viewBox="0 0 88.399993 88.4">
  <metadata
     id="metadata3815">
    <rdf:RDF>
      <cc:Work
         rdf:about="">
        <dc:format>image/svg+xml</dc:format>
        <dc:type
           rdf:resource="http://purl.org/dc/dcmitype/StillImage" />
        <dc:title>Logo</dc:title>
      </cc:Work>
    </rdf:RDF>
  </metadata>
  <defs
     id="defs3767">
    <style
       id="style3765">.cls-1{fill:#fff;}</style>
  </defs>
  <title
     id="title3769">Logo</title>
  <circle
     style="fill:#3366ff;fill-opacity:1"
     id="circle3771"
     r="4.9099998"
     cy="44.200001"
     cx="4.9099998"
     class="cls-1" />
  <path
     style="fill:#3366ff;fill-opacity:1"
     id="path3773"
     d="m 24.56,19.64 a 4.93,4.93 0 0 0 -4.92,4.92 v 39.29 a 4.92,4.92 0 0 0 9.83,0 V 24.56 a 4.93,4.93 0 0 0 -4.91,-4.92 z"
     class="cls-1" />
  <path
     style="fill:#3366ff;fill-opacity:1"
     id="path3775"
     d="m 44.2,0 a 4.93,4.93 0 0 0 -4.91,4.91 v 78.58 a 4.91,4.91 0 1 0 9.82,0 V 4.91 A 4.93,4.93 0 0 0 44.2,0 Z"
     class="cls-1" />
  <path
     style="fill:#3366ff;fill-opacity:1"
     id="path3777"
     d="m 63.85,19.64 a 4.93,4.93 0 0 0 -4.92,4.92 v 39.29 a 4.92,4.92 0 0 0 9.83,0 V 24.56 a 4.93,4.93 0 0 0 -4.91,-4.92 z"
     class="cls-1" />
  <circle
     style="fill:#3366ff;fill-opacity:1"
     id="circle3779"
     r="4.9099998"
     cy="44.200001"
     cx="83.489998"
     class="cls-1" />
  <path
     style="fill:#ffffff"
     id="path3797"
     d="m 399.89,12.09 a 15.19,15.19 0 0 0 -4.16,-0.63 9.08,9.08 0 0 0 -5,1.24 3.83,3.83 0 0 0 -1.88,3.36 4.37,4.37 0 0 0 1,3 7.3,7.3 0 0 0 2.58,1.94 39.51,39.51 0 0 0 4.17,1.5 34.29,34.29 0 0 1 5,1.8 8.7,8.7 0 0 1 3.21,2.58 7.07,7.07 0 0 1 1.32,4.47 7.09,7.09 0 0 1 -1.36,4.3 8.87,8.87 0 0 1 -3.85,2.89 14.8,14.8 0 0 1 -5.68,1 15.9,15.9 0 0 1 -6.24,-1.29 16.75,16.75 0 0 1 -5.19,-3.35 l 1.39,-2.47 a 15.18,15.18 0 0 0 4.8,3.13 13.7,13.7 0 0 0 5.3,1.13 9.55,9.55 0 0 0 5.51,-1.42 4.38,4.38 0 0 0 2,-3.79 4.6,4.6 0 0 0 -1,-3.13 7,7 0 0 0 -2.56,-1.87 c -1,-0.43 -2.43,-0.94 -4.25,-1.52 a 40.83,40.83 0 0 1 -4.95,-1.8 8.23,8.23 0 0 1 -3.17,-2.52 6.86,6.86 0 0 1 -1.3,-4.36 6.55,6.55 0 0 1 1.3,-4 8.35,8.35 0 0 1 3.64,-2.67 14.71,14.71 0 0 1 5.43,-0.93 17.51,17.51 0 0 1 5,0.74 17.27,17.27 0 0 1 4.41,1.95 L 404,13.89 a 15.84,15.84 0 0 0 -4.11,-1.8 z"
     class="cls-1" />
</svg>
