<?xml version="1.0" encoding="utf-8"?>
<!-- Generator: Adobe Illustrator 22.1.0, SVG Export Plug-In . SVG Version: 6.00 Build 0)  -->
<svg version="1.1"
	 id="svg3811" xmlns:cc="http://creativecommons.org/ns#" xmlns:dc="http://purl.org/dc/elements/1.1/" xmlns:rdf="http://www.w3.org/1999/02/22-rdf-syntax-ns#" xmlns:svg="http://www.w3.org/2000/svg"
	 xmlns="http://www.w3.org/2000/svg" xmlns:xlink="http://www.w3.org/1999/xlink" x="0px" y="0px" viewBox="0 0 88.4 88.4"
	 style="enable-background:new 0 0 88.4 88.4;" xml:space="preserve">
	<style type="text/css">
		.st0{fill:#3366FF;}
	</style>
	<circle id="circle3771" class="st0" cx="4.9" cy="44.2" r="4.9"/>
	<path id="path3773" class="st0" d="M24.6,19.6c-2.7,0-4.9,2.2-4.9,4.9v39.3c0.1,2.7,2.4,4.8,5.1,4.7c2.5-0.1,4.6-2.2,4.7-4.7V24.6
		C29.5,21.8,27.3,19.7,24.6,19.6z"/>
	<path id="path3775" class="st0" d="M44.2,0c-2.7,0-4.9,2.2-4.9,4.9v78.6c0,2.7,2.2,4.9,4.9,4.9c2.7,0,4.9-2.2,4.9-4.9c0,0,0,0,0,0
		V4.9C49.1,2.2,46.9,0,44.2,0z"/>
	<path id="path3777" class="st0" d="M63.8,19.6c-2.7,0-4.9,2.2-4.9,4.9v39.3c0.1,2.7,2.4,4.8,5.1,4.7c2.5-0.1,4.6-2.2,4.7-4.7V24.6
		C68.8,21.8,66.6,19.7,63.8,19.6z"/>
	<circle id="circle3779" class="st0" cx="83.5" cy="44.2" r="4.9"/>
</svg>
