<?xml version="1.0" encoding="utf-8"?>
<!-- Generator: Adobe Illustrator 22.1.0, SVG Export Plug-In . SVG Version: 6.00 Build 0)  -->
<svg version="1.1" id="Layer_1" xmlns="http://www.w3.org/2000/svg" xmlns:xlink="http://www.w3.org/1999/xlink" x="0px" y="0px"
	 viewBox="0 0 24 24" style="enable-background:new 0 0 24 24;" xml:space="preserve">
<style type="text/css">
	.st0{fill:#cc0026;}
</style>
<path class="st0" d="M18,13.7V9c0-1-1-2-2-2V4c0-0.5-0.4-1-1-1s-1,0.5-1,1v3h-3.9l7.6,7.6C17.9,14.3,18,14,18,13.7z"/>
<path class="st0" d="M10,4c0-0.5-0.4-1-1-1S8,3.5,8,4v0.9l2,2V4z"/>
<path class="st0" d="M20.1,19.9l-7.7-7.7L7.4,7.1L4.8,4.5c-0.4-0.4-1-0.4-1.4,0S3,5.6,3.4,6l2.6,2.6C6,8.7,6,8.9,6,9v4.7
	c0,0.5,0.2,1,0.6,1.4L9.5,18v2c0,0.5,0.4,1,1,1h3c0.6,0,1-0.5,1-1v-2l0.5-0.5l3.8,3.8c0.4,0.4,1,0.4,1.4,0S20.5,20.3,20.1,19.9z"/>
</svg>
