<?xml version="1.0" encoding="utf-8"?>
<!-- Generator: Adobe Illustrator 22.1.0, SVG Export Plug-In . SVG Version: 6.00 Build 0)  -->
<svg version="1.1" id="Layer_1" xmlns="http://www.w3.org/2000/svg" xmlns:xlink="http://www.w3.org/1999/xlink" x="0px" y="0px"
	 viewBox="0 0 24 24" style="enable-background:new 0 0 24 24;" xml:space="preserve">
<style type="text/css">
	.st0{fill:#FFFFFF;}
</style>
<path class="st0" d="M12,6c0.7,0,1.2,0.5,1.2,1.2V12c0,0.7-0.5,1.2-1.2,1.2s-1.2-0.5-1.2-1.2V7.2C10.8,6.5,11.3,6,12,6z"/>
<path class="st0" d="M12,0C5.4,0,0,5.4,0,12s5.4,12,12,12c6.6,0,12-5.4,12-12S18.6,0,12,0z M12,21.6c-5.3,0-9.6-4.3-9.6-9.6
	S6.7,2.4,12,2.4s9.6,4.3,9.6,9.6S17.3,21.6,12,21.6z"/>
<circle class="st0" cx="12" cy="16.8" r="1.2"/>
</svg>
